<svg xmlns="http://www.w3.org/2000/svg" width="256" height="256" viewBox="0 0 100 100"><path fill="#f8e71c" d="M23.40 18.22L23.40 18.22Q22.96 17.96 23.31 17.30Q23.66 16.64 23.83 16.46L23.83 16.46Q24.01 16.29 24.27 16.25Q24.54 16.20 24.80 16.03L24.80 16.03Q25.24 15.76 25.68 15.32Q26.12 14.88 26.56 14.62L26.56 14.62L27.88 14.09Q28.84 13.56 29.94 13.08Q31.04 12.60 32.01 12.33L32.01 12.33Q34.38 11.10 37.37 10.66L37.37 10.66Q37.72 10.58 38.07 10.62Q38.42 10.66 38.78 10.58L38.78 10.58Q40.27 10.40 41.63 10.00Q43.00 9.61 44.23 9.43L44.23 9.43Q44.84 9.26 45.41 9.48Q45.98 9.70 45.90 10.14L45.90 10.14Q45.54 10.84 44.62 10.84Q43.70 10.84 42.73 10.75L42.73 10.75Q42.12 10.93 41.37 11.15Q40.62 11.37 39.92 11.63L39.92 11.63Q38.51 11.98 37.81 13.21L37.81 13.21Q37.02 13.65 35.61 13.83Q34.21 14.00 33.50 13.56L33.50 13.56Q32.71 13.74 32.18 13.48L32.18 13.48Q30.25 14.18 28.67 15.15Q27.09 16.11 25.50 17.08L25.50 17.08Q25.15 17.26 24.45 17.87Q23.75 18.49 23.40 18.22ZM83.16 70.17L83.16 70.17Q83.69 70.61 84.00 71.31Q84.30 72.01 84.57 72.71L84.57 72.71Q84.57 73.86 84.04 74.74Q83.51 75.62 83.07 76.49L83.07 76.49Q81.84 77.20 80.83 78.08Q79.82 78.96 78.68 79.83L78.68 79.83Q78.06 80.19 77.36 80.58Q76.66 80.98 75.95 81.33L75.95 81.33Q75.34 81.59 74.68 81.64Q74.02 81.68 73.32 81.86L73.32 81.86Q72.88 82.03 72.39 82.21Q71.91 82.38 71.38 82.56L71.38 82.56Q70.94 82.73 70.55 82.78Q70.15 82.82 69.71 83.00L69.71 83.00Q68.83 83.26 67.69 83.57Q66.55 83.88 65.50 84.14L65.50 84.14Q65.14 84.23 64.88 84.32Q64.62 84.40 64.35 84.49L64.35 84.49Q63.21 84.49 62.64 84.67Q62.07 84.84 61.45 85.02L61.45 85.02Q59.69 85.46 57.85 85.46L57.85 85.46Q57.50 85.37 57.19 85.37Q56.88 85.37 56.62 85.28L56.62 85.28Q56.09 85.11 55.70 84.80Q55.30 84.49 54.60 84.40L54.60 84.40Q53.37 84.32 51.83 84.67Q50.29 85.02 49.50 85.46L49.50 85.46Q49.24 85.63 49.06 85.90Q48.88 86.16 48.62 86.34L48.62 86.34Q47.21 86.25 46.64 86.38Q46.07 86.51 45.63 86.34L45.63 86.34Q45.37 86.34 45.10 86.25Q44.84 86.16 44.58 86.16L44.58 86.16Q44.31 86.16 44.09 86.21Q43.87 86.25 43.61 86.16L43.61 86.16Q42.47 85.90 42.16 85.94Q41.85 85.99 41.50 85.99L41.50 85.99Q40.27 85.81 39.17 85.46Q38.07 85.11 37.11 85.11L37.11 85.11Q36.67 84.67 36.10 84.71Q35.52 84.76 34.91 84.58L34.91 84.58Q34.47 84.49 33.90 84.18Q33.33 83.88 32.80 83.70L32.80 83.70Q31.75 83.44 31.53 83.26Q31.31 83.09 31.04 83.00L31.04 83.00Q30.34 82.56 29.37 82.34Q28.41 82.12 27.70 81.77L27.70 81.77Q26.30 80.89 25.37 80.71Q24.45 80.54 23.66 80.10L23.66 80.10Q22.87 79.66 22.17 79.04Q21.46 78.43 20.76 77.81L20.76 77.81Q20.67 77.37 20.63 76.93Q20.58 76.49 20.50 76.05L20.50 76.05Q20.32 75.62 20.14 75.04Q19.97 74.47 19.70 74.21L19.70 74.21Q19.18 73.77 18.34 73.64Q17.51 73.51 17.33 72.63L17.33 72.63Q17.33 72.28 17.42 71.79Q17.51 71.31 17.55 70.78Q17.59 70.25 17.64 69.81Q17.68 69.38 17.51 69.11L17.51 69.11Q17.33 68.85 16.85 68.76Q16.36 68.67 16.01 68.58L16.01 68.58Q15.05 68.23 14.17 67.75Q13.29 67.27 12.85 66.39L12.85 66.39Q12.50 65.86 12.41 65.16Q12.32 64.45 12.15 63.66L12.15 63.66Q11.97 62.96 11.75 62.34Q11.53 61.73 11.35 61.03L11.35 61.03Q11.18 59.79 11.13 58.70Q11.09 57.60 10.92 56.37L10.92 56.37Q10.92 55.93 10.83 55.44Q10.74 54.96 10.65 54.43L10.65 54.43Q10.48 52.94 10.52 51.40Q10.56 49.86 10.65 48.37L10.65 48.37Q10.65 48.11 10.61 47.67Q10.56 47.23 10.65 46.88L10.65 46.88Q11.27 45.56 11.22 44.85Q11.18 44.15 11.27 43.62L11.27 43.62Q11.44 41.07 12.32 39.10Q13.20 37.12 13.99 34.83L13.99 34.83Q14.43 34.57 15.00 34.13Q15.57 33.69 15.84 33.08L15.84 33.08Q16.45 32.02 16.58 30.62Q16.72 29.21 17.42 28.15L17.42 28.15Q17.68 27.80 17.99 27.58Q18.30 27.36 18.47 27.19L18.47 27.19Q18.83 26.31 19.09 25.96L19.09 25.96Q19.62 25.25 19.79 24.90L19.79 24.90Q20.23 24.55 20.45 24.11Q20.67 23.67 21.11 23.23L21.11 23.23Q21.81 22.44 22.56 21.83Q23.31 21.21 24.10 20.60L24.10 20.60Q24.54 20.16 25.02 19.80Q25.50 19.45 26.12 19.10L26.12 19.10Q26.82 18.66 27.48 18.22Q28.14 17.78 29.11 17.34L29.11 17.34Q31.04 16.46 33.33 15.50L33.33 15.50Q34.29 15.67 35.39 15.89Q36.49 16.11 37.46 15.94L37.46 15.94Q38.16 15.76 38.56 15.28Q38.95 14.79 39.39 14.18L39.39 14.18Q40.97 13.56 42.64 13.04Q44.31 12.51 46.07 12.69L46.07 12.69Q47.48 12.25 49.10 12.33Q50.73 12.42 52.40 12.33L52.40 12.33Q52.84 12.33 53.67 12.42Q54.51 12.51 55.21 12.69L55.21 12.69Q55.83 12.86 56.35 12.86Q56.88 12.86 57.41 12.95L57.41 12.95Q57.76 13.04 58.02 13.17Q58.29 13.30 58.64 13.30L58.64 13.30Q59.17 13.39 59.65 13.30Q60.13 13.21 60.57 13.21L60.57 13.21Q61.01 13.21 61.50 13.48Q61.98 13.74 62.59 13.83L62.59 13.83Q63.83 14.00 64.00 14.09L64.00 14.09Q64.53 14.27 65.01 14.27Q65.50 14.27 65.93 14.36L65.93 14.36Q66.90 14.79 67.03 14.75Q67.17 14.71 67.34 14.79L67.34 14.79Q67.78 14.97 68.26 15.23Q68.75 15.50 69.19 15.67L69.19 15.67Q69.45 15.76 69.71 15.72Q69.98 15.67 70.24 15.76L70.24 15.76Q71.12 16.20 71.34 16.20Q71.56 16.20 71.74 16.38L71.74 16.38Q72.17 16.64 72.39 17.12Q72.61 17.61 72.97 18.05L72.97 18.05Q73.14 18.40 73.45 18.57Q73.76 18.75 74.02 19.19L74.02 19.19Q74.37 19.19 74.59 19.37Q74.81 19.54 75.25 19.63L75.25 19.63Q75.69 19.72 76.04 19.63Q76.39 19.54 76.75 19.63L76.75 19.63Q77.54 19.98 78.33 20.42L78.33 20.42Q78.68 20.60 79.12 20.90Q79.56 21.21 80.00 21.56L80.00 21.56Q80.52 21.91 81.10 22.31Q81.67 22.71 82.11 23.23L82.11 23.23Q82.55 23.67 83.07 24.24Q83.60 24.81 84.13 25.43L84.13 25.43Q84.74 26.31 84.44 27.54Q84.13 28.77 83.86 29.65L83.86 29.65Q83.34 29.91 82.94 30.40Q82.55 30.88 82.02 31.32L82.02 31.32Q81.84 31.49 81.45 31.58Q81.05 31.67 80.79 31.85L80.79 31.85Q80.44 32.02 80.22 32.42Q80.00 32.81 79.65 32.99L79.65 32.99Q78.68 32.99 78.42 33.12Q78.15 33.25 77.98 33.25L77.98 33.25Q77.80 33.25 77.45 33.16Q77.10 33.08 76.92 32.99L76.92 32.99Q75.95 32.55 75.03 31.85Q74.11 31.14 72.79 30.97L72.79 30.97Q71.56 30.53 70.68 29.69Q69.80 28.86 68.57 28.42L68.57 28.42Q68.13 28.59 67.87 28.37Q67.60 28.15 67.17 28.07L67.17 28.07Q66.90 27.89 66.55 27.93Q66.20 27.98 65.93 27.89L65.93 27.89Q65.41 27.71 64.92 27.45Q64.44 27.19 63.91 27.01L63.91 27.01Q63.30 26.84 62.68 26.79Q62.07 26.75 61.45 26.66L61.45 26.66Q60.92 26.48 60.35 26.35Q59.78 26.22 59.25 26.22L59.25 26.22Q58.55 26.22 58.02 26.26Q57.50 26.31 56.97 26.22L56.97 26.22Q56.62 26.04 56.31 25.96Q56.00 25.87 55.56 25.87L55.56 25.87Q54.33 25.87 52.97 25.87Q51.61 25.87 50.47 25.96L50.47 25.96Q49.76 26.04 49.02 26.40Q48.27 26.75 47.57 26.92L47.57 26.92Q47.39 27.01 47.13 26.97Q46.86 26.92 46.60 27.01L46.60 27.01Q45.37 27.63 44.80 27.80Q44.23 27.98 43.70 28.51L43.70 28.51Q43.17 28.51 42.82 28.73Q42.47 28.95 42.03 29.12L42.03 29.12Q41.50 30.18 40.97 31.10Q40.45 32.02 40.01 33.16L40.01 33.16Q40.01 34.39 39.79 35.58Q39.57 36.77 39.39 38.09L39.39 38.09Q39.22 38.79 39.04 39.36Q38.86 39.93 38.86 40.55L38.86 40.55Q38.86 40.99 38.91 41.47Q38.95 41.95 38.95 42.39L38.95 42.39Q38.95 43.10 38.82 43.67Q38.69 44.24 38.78 44.94L38.78 44.94Q38.60 45.12 38.42 45.38Q38.25 45.64 37.99 45.82L37.99 45.82Q37.02 47.14 37.72 48.54Q38.42 49.95 38.95 51.09L38.95 51.09Q38.86 52.41 38.78 52.98Q38.69 53.55 38.78 54.08L38.78 54.08Q38.78 54.79 38.73 55.62Q38.69 56.46 38.78 57.33L38.78 57.33Q38.86 57.77 38.95 58.21Q39.04 58.65 39.13 59.09L39.13 59.09Q39.13 60.06 39.04 61.11Q38.95 62.17 39.13 63.22L39.13 63.22Q39.48 64.98 39.57 65.86Q39.66 66.74 40.36 67.44L40.36 67.44Q40.53 67.79 40.89 68.01Q41.24 68.23 41.50 68.41L41.50 68.41Q42.29 69.02 43.17 69.46Q44.05 69.90 44.93 70.61L44.93 70.61Q46.51 71.57 47.92 71.88Q49.32 72.19 50.38 72.71L50.38 72.71Q51.87 72.98 53.15 73.20Q54.42 73.42 55.92 73.51L55.92 73.51Q56.88 73.51 57.80 73.46Q58.73 73.42 59.69 73.51L59.69 73.51Q63.03 73.86 65.98 72.85Q68.92 71.84 71.56 70.34L71.56 70.34Q72.26 69.90 73.01 69.29Q73.76 68.67 74.55 68.06L74.55 68.06Q75.25 67.53 76.22 66.87Q77.18 66.21 78.15 66.30L78.15 66.30Q78.59 66.30 78.99 66.56Q79.38 66.83 79.82 66.74L79.82 66.74Q80.44 67.18 80.74 67.75Q81.05 68.32 81.58 69.02L81.58 69.02Q81.84 69.46 82.28 69.59Q82.72 69.73 83.16 70.17ZM14.69 53.82L14.43 53.99Q14.17 54.79 14.30 55.36Q14.43 55.93 14.87 56.19L14.87 56.19Q15.57 56.19 15.92 55.58Q16.28 54.96 16.01 54.26L16.01 54.26Q15.66 54.17 15.35 53.95Q15.05 53.73 14.69 53.82L14.69 53.82ZM16.98 64.98L17.59 64.80Q17.86 63.84 17.46 63.27Q17.07 62.70 16.63 61.82L16.63 61.82Q16.45 61.38 16.32 60.81Q16.19 60.23 15.97 59.79Q15.75 59.36 15.44 59.09Q15.13 58.83 14.52 58.92L14.52 58.92Q14.43 59.18 14.43 59.44Q14.43 59.71 14.34 59.97L14.34 59.97Q14.78 61.20 14.91 62.48Q15.05 63.75 16.01 64.63L16.01 64.63Q16.36 64.63 16.54 64.76Q16.72 64.89 16.98 64.98L16.98 64.98ZM24.71 27.19L24.71 27.19Q25.59 27.28 26.43 27.06Q27.26 26.84 27.09 25.78L27.09 25.78Q26.38 25.08 26.30 24.90L26.30 24.90Q25.50 25.08 24.85 25.65Q24.19 26.22 24.71 27.19ZM34.73 21.04L34.73 21.04Q35.08 20.68 35.04 20.02Q35.00 19.37 34.73 19.01L34.73 19.01Q34.12 18.49 32.98 18.84L32.98 18.84Q32.36 19.01 31.79 19.41Q31.22 19.80 30.69 20.07L30.69 20.07Q29.11 20.95 28.32 21.74L28.32 21.74Q28.23 22.09 28.10 22.44Q27.97 22.79 28.14 23.23L28.14 23.23Q28.49 23.32 28.76 23.67Q29.02 24.02 29.46 24.02L29.46 24.02Q29.90 24.02 30.16 23.54Q30.43 23.06 30.78 22.79L30.78 22.79Q31.57 22.00 32.76 21.78Q33.94 21.56 34.73 21.04ZM42.64 75.70L42.64 75.70Q43.35 75.53 43.83 75.13Q44.31 74.74 44.58 74.30L44.58 74.30Q44.14 73.77 43.48 73.77Q42.82 73.77 42.12 73.90Q41.41 74.03 40.67 74.17Q39.92 74.30 39.30 74.03L39.30 74.03Q38.69 73.77 38.47 73.11Q38.25 72.45 37.81 72.01L37.81 72.01Q37.02 72.71 37.37 73.68Q37.72 74.65 38.34 74.91L38.34 74.91Q39.39 75.26 39.70 75.57Q40.01 75.88 40.36 75.88L40.36 75.88Q40.80 75.97 41.46 75.88Q42.12 75.79 42.64 75.70ZM46.60 76.32L46.60 76.32Q46.77 76.58 47.26 76.76Q47.74 76.93 48.22 76.93Q48.71 76.93 49.06 76.71Q49.41 76.49 49.41 75.88L49.41 75.88Q48.88 75.88 48.80 75.70Q48.71 75.53 48.53 75.44L48.53 75.44Q48.00 75.62 47.43 75.75Q46.86 75.88 46.60 76.32ZM73.76 78.69L73.76 78.69Q74.11 78.60 74.64 78.25L74.64 78.25Q74.64 77.55 74.55 77.20L74.55 77.20Q74.11 77.02 73.71 77.20Q73.32 77.37 73.10 77.72Q72.88 78.08 73.01 78.38Q73.14 78.69 73.76 78.69ZM77.18 76.05L77.18 76.05Q78.59 76.85 79.78 75.88Q80.96 74.91 81.14 73.59L81.14 73.59Q80.88 73.42 80.70 73.15Q80.52 72.89 80.17 72.80L80.17 72.80Q79.91 72.71 79.69 72.85Q79.47 72.98 79.12 72.98L79.12 72.98Q78.94 73.24 78.59 73.46Q78.24 73.68 78.06 74.03L78.06 74.03Q77.80 74.82 77.40 75.18Q77.01 75.53 77.18 76.05ZM17.77 22.97L17.77 22.97Q16.45 22.09 16.94 21.69Q17.42 21.30 17.86 20.86L17.86 20.86Q18.39 20.07 18.47 20.07Q18.56 20.07 18.74 19.98L18.74 19.98Q19.18 19.63 19.40 19.41Q19.62 19.19 20.06 19.10L20.06 19.10Q20.58 19.01 21.02 19.15Q21.46 19.28 21.64 19.80L21.64 19.80Q21.46 20.77 20.63 21.43Q19.79 22.09 19.00 22.53L19.00 22.53Q18.83 22.62 18.43 22.84Q18.03 23.06 17.77 22.97ZM89.49 26.84L89.49 26.84Q89.49 27.19 89.45 27.58Q89.40 27.98 89.23 28.15L89.23 28.15Q87.73 29.30 87.12 30.04Q86.50 30.79 85.80 31.49L85.80 31.49Q85.53 31.49 84.74 31.71Q83.95 31.93 83.95 31.32L83.95 31.32Q83.86 31.14 84.35 30.66Q84.83 30.18 85.01 29.91L85.01 29.91Q85.62 29.30 85.97 28.86Q86.33 28.42 86.50 27.54L86.50 27.54Q86.59 26.40 86.68 26.22Q86.76 26.04 86.76 25.87L86.76 25.87Q86.76 25.69 86.59 25.34Q86.41 24.99 86.24 24.81L86.24 24.81Q85.62 23.85 84.83 23.23Q84.04 22.62 83.34 21.74L83.34 21.74Q83.07 21.56 82.81 21.47Q82.55 21.39 82.37 21.12L82.37 21.12Q82.46 20.77 82.59 20.60Q82.72 20.42 82.63 20.07L82.63 20.07Q83.42 19.37 83.91 19.94Q84.39 20.51 84.83 21.04L84.83 21.04Q85.27 21.39 85.67 21.69Q86.06 22.00 86.41 22.27L86.41 22.27Q86.76 22.44 86.94 22.71Q87.12 22.97 87.38 23.23L87.38 23.23Q88.61 24.20 89.05 25.03Q89.49 25.87 89.49 26.84ZM51.78 29.82L51.78 29.82Q51.34 29.21 51.70 28.77Q52.05 28.33 52.71 28.20Q53.37 28.07 54.03 28.24Q54.68 28.42 54.86 28.95L54.86 28.95Q54.68 29.82 53.59 30.09Q52.49 30.35 51.78 29.82ZM45.28 32.37L45.28 32.37Q45.10 32.64 45.10 32.94Q45.10 33.25 44.75 33.43L44.75 33.43Q44.58 34.39 44.36 35.63Q44.14 36.86 44.14 38.09L44.14 38.09Q44.23 38.96 44.23 40.02Q44.23 41.07 43.96 41.69L43.96 41.69Q43.70 42.13 43.30 42.30Q42.91 42.48 42.56 42.30L42.56 42.30Q42.20 41.95 42.25 41.47Q42.29 40.99 42.20 40.37L42.20 40.37Q42.12 39.93 42.12 39.62Q42.12 39.32 42.12 38.88L42.12 38.88Q42.20 38.09 42.20 37.25Q42.20 36.42 42.29 35.71L42.29 35.71Q42.56 32.55 44.23 30.62L44.23 30.62Q45.19 30.35 46.51 29.65Q47.83 28.95 49.06 28.77L49.06 28.77Q49.50 28.68 49.89 29.17Q50.29 29.65 50.11 30.09L50.11 30.09Q49.67 30.35 49.41 30.57Q49.15 30.79 48.71 30.88L48.71 30.88Q48.27 30.97 47.83 30.92Q47.39 30.88 46.86 31.14L46.86 31.14Q46.42 31.32 45.94 31.71Q45.46 32.11 45.28 32.37ZM79.12 61.82L79.12 61.82Q79.82 62.17 80.30 62.61Q80.79 63.05 81.23 63.49L81.23 63.49Q81.49 64.19 81.89 64.54Q82.28 64.89 82.37 65.60L82.37 65.60Q81.32 65.51 80.83 64.98Q80.35 64.45 79.73 64.01L79.73 64.01Q79.21 64.01 78.81 63.84Q78.42 63.66 77.98 63.66L77.98 63.66Q77.27 63.84 76.88 64.37Q76.48 64.89 75.87 64.98L75.87 64.98Q74.02 66.12 72.61 66.91Q71.21 67.71 69.71 68.67L69.71 68.67Q69.27 68.85 68.83 68.94Q68.40 69.02 67.96 69.29L67.96 69.29Q67.52 69.46 67.17 69.73Q66.81 69.99 66.20 69.99L66.20 69.99Q65.93 69.90 65.58 69.68Q65.23 69.46 65.23 69.20L65.23 69.20Q65.23 68.76 65.85 68.41Q66.46 68.06 66.90 68.06L66.90 68.06Q67.34 68.06 67.60 68.23Q67.87 68.41 68.31 68.23L68.31 68.23Q69.36 67.88 70.42 67.05Q71.47 66.21 72.44 65.86L72.44 65.86Q73.32 64.72 74.59 64.06Q75.87 63.40 76.75 62.34L76.75 62.34Q77.27 62.17 77.80 61.95Q78.33 61.73 79.12 61.82ZM68.22 87.04L68.22 87.04Q68.40 87.22 68.26 87.61Q68.13 88.01 68.22 88.36L68.22 88.36Q67.60 88.62 66.90 88.49Q66.20 88.36 65.50 88.36L65.50 88.36Q64.88 88.27 63.78 88.45Q62.68 88.62 61.98 88.80L61.98 88.80Q61.54 88.89 61.14 89.02Q60.75 89.15 60.31 89.33L60.31 89.33Q59.61 89.59 58.90 89.63Q58.20 89.68 57.58 89.94L57.58 89.94Q55.83 89.77 54.20 90.07Q52.58 90.38 50.99 90.29L50.99 90.29Q49.67 90.03 48.44 90.29L48.44 90.29Q47.30 90.47 46.16 90.47Q45.02 90.47 43.96 90.64L43.96 90.64Q43.08 90.21 41.94 90.29Q40.80 90.38 39.66 90.29L39.66 90.29Q39.39 89.94 38.42 89.94L38.42 89.94Q38.25 89.50 37.85 89.24Q37.46 88.97 37.37 88.36L37.37 88.36Q37.55 87.83 38.07 88.01Q38.60 88.18 39.04 88.01L39.04 88.01Q40.09 88.36 41.41 88.62Q42.73 88.89 44.14 89.06L44.14 89.06Q44.58 89.15 45.02 89.06Q45.46 88.97 45.90 88.97L45.90 88.97Q46.16 88.97 46.42 89.06Q46.69 89.15 46.86 89.24L46.86 89.24Q48.62 89.24 49.76 88.80L49.76 88.80Q50.20 88.62 50.51 88.23Q50.82 87.83 51.26 87.66L51.26 87.66Q54.42 87.83 57.72 87.83Q61.01 87.83 64.00 87.13L64.00 87.13Q64.70 86.95 65.28 86.78Q65.85 86.60 66.55 86.60L66.55 86.60Q66.90 86.51 67.47 86.65Q68.04 86.78 68.22 87.04ZM83.07 32.90L83.69 33.52Q83.51 34.13 83.07 34.75Q82.63 35.36 82.11 35.54L82.11 35.54Q81.23 35.80 80.96 35.27Q80.70 34.75 80.92 34.13Q81.14 33.52 81.71 33.03Q82.28 32.55 83.07 32.90L83.07 32.90Z"></path></svg>
