<svg xmlns="http://www.w3.org/2000/svg" fill="none" viewBox="-0.5 -0.5 24 24" height="24" width="24">
<g><path fill="#ffffff00" d="M6.411458171428571 42.853099928571424h28.652079185714285c1.7582864999999999 0 3.1835714285714283 -1.4252849285714284 3.1835714285714283 -3.1835714285714283V18.976282378571426H3.2278867428571423v20.69324612142857c0 1.7582864999999999 1.425316764285714 3.1835714285714283 3.1835714285714283 3.1835714285714283Z" stroke-width="3.43"></path>
<path fill="#ffffff00" d="M35.063537357142856 11.017353807142856H6.411458171428571c-1.758254664285714 0 -3.1835714285714283 1.4253486 -3.1835714285714283 3.1835714285714283v4.775357142857143H38.24710878571428v-4.775357142857143c0 -1.7582228285714283 -1.4252849285714284 -3.1835714285714283 -3.1835714285714283 -3.1835714285714283Z" stroke-width="3.43"></path>
<path stroke="#ffffff" stroke-linecap="round" stroke-linejoin="round" d="M14.603328664285712 11.017353807142856H6.411458171428571c-0.8443468142857142 0 -1.6540882071428569 0.3354210857142857 -2.251135192857143 0.9324680714285714 -0.5970469857142857 0.5970151499999999 -0.9324362357142856 1.4067883785714284 -0.9324362357142856 2.2511033571428567v25.46860326428571c0 0.8442831428571428 0.33538924999999997 1.6541837142857139 0.9324362357142856 2.2511033571428567 0.5970469857142857 0.5969196428571428 1.4067883785714284 0.9324680714285714 2.251135192857143 0.9324680714285714h28.652079185714285c1.7582864999999999 0 3.1835714285714283 -1.4252849285714284 3.1835714285714283 -3.1835714285714283V26.935210949999995" stroke-width="3.43"></path>
<path stroke="#ffffff" stroke-linecap="round" stroke-linejoin="round" d="M3.2278867428571423 18.976282378571426h16.715437292857143" stroke-width="3.43"></path>
<path stroke="#ffffff" stroke-linecap="round" stroke-linejoin="round" d="m11.186815314285713 34.89417135714285 4.775357142857143 -4.775388978571429 -4.775357142857143 -4.775357142857143" stroke-width="3.43"></path>
<path stroke="#ffffff" stroke-linecap="round" stroke-linejoin="round" d="M20.7375296 34.89417135714285h4.775357142857143" stroke-width="3.43"></path>
<path fill="#ffffff00" d="M21.97316917857143 12.649157014285713c-1.1172107214285714 -0.19438887142857142 -1.1172107214285714 -1.79817665 0 -1.9925336857142855C26.02063455 9.952480999999999 29.23983014285714 6.869605935714286 30.118336678571424 2.8563894257142857L30.18566921428571 2.5487641021428566c0.24172857857142854 -1.104167629285714 1.8139989999999997 -1.11104096 2.0651827857142857 -0.00902860857142857l0.0818177857142857 0.35850197857142857c0.9111381428571428 3.9942901778571422 4.131002285714286 7.051091792142857 8.1674525 7.753292142142857 1.1228456428571427 0.19534394285714282 1.1228456428571427 1.8073453357142857 0 2.0026892785714283 -4.036450214285714 0.7022003499999999 -7.256314357142857 3.7590337999999996 -8.1674525 7.753301692857143l-0.0818177857142857 0.35850197857142857c-0.2511837857142857 1.1020250857142857 -1.823454207142857 1.0951485714285711 -2.0651827857142857 -0.009041342857142856l-0.0673325357142857 -0.3075966714285714C29.23983014285714 16.43614257142857 26.02063455 13.353299342857142 21.97316917857143 12.649157014285713Z" stroke-width="3.43"></path>
<path stroke="#c0a610" stroke-linecap="round" stroke-linejoin="round" d="M21.97316917857143 12.649157014285713c-1.1172107214285714 -0.19438887142857142 -1.1172107214285714 -1.79817665 0 -1.9925336857142855C26.02063455 9.952480999999999 29.23983014285714 6.869605935714286 30.118336678571424 2.8563894257142857L30.18566921428571 2.5487641021428566c0.24172857857142854 -1.104167629285714 1.8139989999999997 -1.11104096 2.0651827857142857 -0.00902860857142857l0.0818177857142857 0.35850197857142857c0.9111381428571428 3.9942901778571422 4.131002285714286 7.051091792142857 8.1674525 7.753292142142857 1.1228456428571427 0.19534394285714282 1.1228456428571427 1.8073453357142857 0 2.0026892785714283 -4.036450214285714 0.7022003499999999 -7.256314357142857 3.7590337999999996 -8.1674525 7.753301692857143l-0.0818177857142857 0.35850197857142857c-0.2511837857142857 1.1020250857142857 -1.823454207142857 1.0951485714285711 -2.0651827857142857 -0.009041342857142856l-0.0673325357142857 -0.3075966714285714C29.23983014285714 16.43614257142857 26.02063455 13.353299342857142 21.97316917857143 12.649157014285713Z" stroke-width="3.43"></path>
</g></svg>
