<svg xmlns="http://www.w3.org/2000/svg" fill="none" viewBox="-0.855 -0.855 24 24" height="24" width="24"><g>
  <path fill="#ffffff00" d="M3.206448342857143 21.431357357142854h14.329253871428572c0.8793405 0 1.592142857142857 -0.7128023571428571 1.592142857142857 -1.592142857142857V9.490270007142856H1.6143054857142856v10.348944492857141c0 0.8793405 0.7128182785714285 1.592142857142857 1.592142857142857 1.592142857142857Z" stroke-width="1.71"></path>
  <path fill="#ffffff00" d="M17.535702214285713 5.509912864285714H3.206448342857143c-0.8793245785714284 0 -1.592142857142857 0.7128342 -1.592142857142857 1.592142857142857v2.3882142857142856H19.12784507142857v-2.3882142857142856c0 -0.8793086571428571 -0.7128023571428571 -1.592142857142857 -1.592142857142857 -1.592142857142857Z" stroke-width="1.71"></path>
  <path stroke="#ffffff" stroke-linecap="round" stroke-linejoin="round" d="M7.3033025785714285 5.509912864285714H3.206448342857143c-0.4222681285714286 0 -0.8272296642857142 0.1677481714285714 -1.1258201357142856 0.4663386428571428 -0.2985904714285714 0.29857455 -0.4663227214285714 0.7035520071428571 -0.4663227214285714 1.125804214285714v12.737158778571427c0 0.4222362857142857 0.16773225 0.8272774285714285 0.4663227214285714 1.125804214285714 0.2985904714285714 0.2985267857142857 0.7035520071428571 0.4663386428571428 1.1258201357142856 0.4663386428571428h14.329253871428572c0.8793405 0 1.592142857142857 -0.7128023571428571 1.592142857142857 -1.592142857142857V13.470627149999999" stroke-width="1.71"></path>
  <path stroke="#ffffff" stroke-linecap="round" stroke-linejoin="round" d="M1.6143054857142856 9.490270007142856h8.359593835714286" stroke-width="1.71"></path>
  <path stroke="#ffffff" stroke-linecap="round" stroke-linejoin="round" d="m5.594662628571428 17.451000214285713 2.3882142857142856 -2.388230207142857 -2.3882142857142856 -2.3882142857142856" stroke-width="1.71"></path>
  <path stroke="#ffffff" stroke-linecap="round" stroke-linejoin="round" d="M10.371091199999999 17.451000214285713h2.3882142857142856" stroke-width="1.71"></path>
  <path fill="#ffffff00" d="M10.989049607142857 6.325997528571428c-0.5587306928571428 -0.09721624285714286 -0.5587306928571428 -0.8992900500000001 0 -0.9964903714285713C13.01323635 4.977357 14.623195285714285 3.4355736214285715 15.062547107142857 1.4285151514285714L15.096220928571428 1.274667979285714c0.12089140714285714 -0.5522076835714286 0.9072029999999999 -0.55564512 1.0328230714285715 -0.004515317142857142l0.04091807142857143 0.17929120714285715c0.4556712857142857 1.9975931807142855 2.0659645714285717 3.5263369092857144 4.0846425 3.8775158592857144 0.5615487857142857 0.09769388571428571 0.5615487857142857 0.9038754214285715 0 1.001569307142857 -2.0186779285714285 0.35117895 -3.6289712142857145 1.8799386 -4.0846425 3.8775206357142857l-0.04091807142857143 0.17929120714285715c-0.12562007142857143 0.5511361714285714 -0.9119316642857143 0.5476971428571428 -1.0328230714285715 -0.004521685714285714l-0.03367382142857143 -0.15383284285714285C14.623195285714285 8.219915142857142 13.01323635 6.678147685714285 10.989049607142857 6.325997528571428Z" stroke-width="1.71"></path>
  <path stroke="#c0a610" stroke-linecap="round" stroke-linejoin="round" d="M10.989049607142857 6.325997528571428c-0.5587306928571428 -0.09721624285714286 -0.5587306928571428 -0.8992900500000001 0 -0.9964903714285713C13.01323635 4.977357 14.623195285714285 3.4355736214285715 15.062547107142857 1.4285151514285714L15.096220928571428 1.274667979285714c0.12089140714285714 -0.5522076835714286 0.9072029999999999 -0.55564512 1.0328230714285715 -0.004515317142857142l0.04091807142857143 0.17929120714285715c0.4556712857142857 1.9975931807142855 2.0659645714285717 3.5263369092857144 4.0846425 3.8775158592857144 0.5615487857142857 0.09769388571428571 0.5615487857142857 0.9038754214285715 0 1.001569307142857 -2.0186779285714285 0.35117895 -3.6289712142857145 1.8799386 -4.0846425 3.8775206357142857l-0.04091807142857143 0.17929120714285715c-0.12562007142857143 0.5511361714285714 -0.9119316642857143 0.5476971428571428 -1.0328230714285715 -0.004521685714285714l-0.03367382142857143 -0.15383284285714285C14.623195285714285 8.219915142857142 13.01323635 6.678147685714285 10.989049607142857 6.325997528571428Z" stroke-width="1.71"></path></g></svg>
