<svg xmlns="http://www.w3.org/2000/svg" fill="none" viewBox="-0.5 -0.5 24 24" id="prompt" height="24" width="24"><g id="prompt"><path fill="#c4c4c3" d="M20.125 5.03125v12.9375c0 0.1906484375 -0.07573828125 0.37348046875 -0.21050390624999998 0.50824609375S19.596898437500002 18.6875 19.40625 18.6875H3.59375c-0.190621484375 0 -0.37344453125 -0.07573828125 -0.508237109375 -0.21050390624999998C2.950729296875 18.34223046875 2.875 18.159398437500002 2.875 17.96875V5.03125c0 -0.190621484375 0.075729296875 -0.37344453125 0.210512890625 -0.508237109375C3.2203054687500003 4.388229296875 3.403128515625 4.3125 3.59375 4.3125h15.8125c0.1906484375 0 0.37348046875 0.075729296875 0.50824609375 0.210512890625C20.04926171875 4.65780546875 20.125 4.840628515625 20.125 5.03125Z" stroke-width="1"></path><path fill="#000000" d="M11.5 11.5c0.00008984375 0.10781249999999999 -0.024078125000000002 0.21427734375 -0.07079687500000001 0.31148828125 -0.046628906250000005 0.09721093750000001 -0.11455078125 0.18265234375 -0.19873437500000002 0.25003515625l-3.59375 2.875c-0.07374375 0.05902734375 -0.15837656249999998 0.10287109375 -0.24908281250000003 0.1291953125 -0.09069726562500001 0.026234374999999997 -0.18568906250000003 0.034410156250000004 -0.279548828125 0.02398828125 -0.09385078125 -0.010421875 -0.18473671875 -0.03926171875 -0.267455859375 -0.0848125 -0.082728125 -0.04555078125 -0.15566328124999998 -0.10691406249999999 -0.21465468750000002 -0.18067578125 -0.058991406249999996 -0.07376171875 -0.102880078125 -0.15839453125 -0.12916835937499999 -0.24904687499999997 -0.026279296874999997 -0.0907421875 -0.034437109375 -0.18570703125000002 -0.02400625 -0.27959375000000003 0.010421875 -0.09388671874999999 0.039234765625 -0.18471875000000001 0.08478554687499999 -0.26746484375 0.04555078125 -0.08274609375 0.10694999999999999 -0.155609375 0.18069375000000001 -0.21463671874999998L9.6303515625 11.5 6.73828125 9.1865234375c-0.07374375 -0.05902734375 -0.13514296875 -0.13189062499999998 -0.18069375000000001 -0.21465468750000002 -0.04555078125 -0.08271914062499999 -0.074363671875 -0.17360507812499998 -0.08478554687499999 -0.267455859375 -0.010430859374999999 -0.093859765625 -0.002273046875 -0.1888515625 0.02400625 -0.279548828125 0.026288281250000003 -0.09070625 0.070176953125 -0.1753390625 0.12916835937499999 -0.24908281250000003 0.058991406249999996 -0.07374375 0.13192656249999998 -0.13514296875 0.21465468750000002 -0.18069375000000001 0.08271914062499999 -0.04555078125 0.17360507812499998 -0.074363671875 0.267455859375 -0.08478554687499999 0.093859765625 -0.010430859374999999 0.1888515625 -0.002273046875 0.279548828125 0.02400625 0.09070625 0.026288281250000003 0.1753390625 0.070176953125 0.24908281250000003 0.12916835937499999l3.59375 2.875c0.08418359375000001 0.0673828125 0.15210546875 0.15282421875000002 0.19873437500000002 0.25003515625 0.04671875 0.09721093750000001 0.07088671875000001 0.20367578125 0.07079687500000001 0.31148828125Zm4.3125 2.15625h-3.59375c-0.1906484375 0 -0.37348046875 0.07573828125 -0.50824609375 0.21050390624999998S11.5 14.184351562499998 11.5 14.375s0.07573828125 0.37348046875 0.21050390624999998 0.50824609375S12.028101562499998 15.09375 12.21875 15.09375h3.59375c0.1906484375 0 0.37348046875 -0.07573828125 0.50824609375 -0.21050390624999998S16.53125 14.565648437500002 16.53125 14.375s-0.07573828125 -0.37348046875 -0.21050390624999998 -0.50824609375S16.003148437500002 13.65625 15.8125 13.65625Zm5.03125 -8.625v12.9375c0 0.38120703125000005 -0.1514765625 0.74687109375 -0.42100781249999997 1.0164921875 -0.26962109375 0.26953125 -0.6352851562499999 0.42100781249999997 -1.0164921875 0.42100781249999997H3.59375c-0.381251953125 0 -0.746880078125 -0.1514765625 -1.016465234375 -0.42100781249999997C2.307699609375 18.71562109375 2.15625 18.34995703125 2.15625 17.96875V5.03125c0 -0.381251953125 0.151449609375 -0.746880078125 0.42103476562500003 -1.016465234375C2.846869921875 3.7451996093749997 3.2124980468750004 3.59375 3.59375 3.59375h15.8125c0.38120703125000005 0 0.74687109375 0.151449609375 1.0164921875 0.42103476562500003C20.6922734375 4.284369921875 20.84375 4.649998046875 20.84375 5.03125Zm-1.4375 12.9375V5.03125H3.59375v12.9375h15.8125Z" stroke-width="1"></path></g></svg>
