<svg xmlns="http://www.w3.org/2000/svg" fill="none" viewBox="-0.5 -0.5 24 24" id="reset" height="24" width="24"><g id="reset"><path fill="#c4c4c3" d="M17.616814062499998 16.041933984375 2.640642578125 10.051260546875c0.483215625 -0.8517097656250001 1.07648984375 -1.636081640625 1.7645042968750002 -2.3328917968750003 0.11128945312499999 -0.11286171874999999 0.253440234375 -0.190351953125 0.40860039062500003 -0.222740625 0.15516015625000001 -0.03239765625 0.31644765625000004 -0.018247265625000002 0.46359375 0.04066328125l2.55319765625 1.03415546875c0.19691953125000003 0.07860429687500001 0.4074234375 0.11753359375 0.61940078125 0.11454179687499999 0.212058203125 -0.002991796875 0.421412109375 -0.047841796874999995 0.61596875 -0.13198046875 0.19465546874999998 -0.0841296875 0.370704296875 -0.20586796875 0.5181828125 -0.3582609375 0.1473796875 -0.152383984375 0.263269140625 -0.3323859375 0.34093007812500004 -0.529691796875l2.112576953125 -5.34180390625c0.41748593749999996 -1.005989453125 1.5562644531249998 -1.5421859374999998 2.57835390625 -1.159909765625 0.25341328125 0.09424609375 0.48519218750000004 0.23857109375000002 0.6815546875 0.42437695312499996 0.19637148437500002 0.185805859375 0.353202734375 0.40928320312500005 0.46134765624999996 0.657072265625 0.10804609374999999 0.247798046875 0.16508789062499998 0.514831640625 0.16770234375 0.785153515625 0.002515625 0.270321875 -0.049396093749999995 0.53839765625 -0.152707421875 0.7882171874999999l-2.147795703125 5.341794921875c-0.15693007812499998 0.39595937499999995 -0.15049726562500002 0.838089453125 0.017905859375 1.229323046875 0.168304296875 0.3913234375 0.48499453125 0.6998648437499999 0.880441796875 0.858106640625l2.508940625 0.9898894531249999c0.148790234375 0.060258203125 0.27624257812499997 0.163578515625 0.3658796875 0.296771875s0.137416015625 0.2901234375 0.13711953125 0.45068320312500004v1.73734453125c-0.0009074218749999999 0.44122265624999996 0.025955859374999998 0.88205 0.08048203125 1.31985859375Z" stroke-width="1"></path><path fill="#000000" d="M21.912396484374998 21.241892578125c-2.269516015625 -1.1065875 -3.5712621093749997 -3.4787140625 -3.5712621093749997 -6.5188109375v-1.73835078125c0.000799609375 -0.32252109375 -0.09557578125 -0.6378007812500001 -0.276646875 -0.904591796875 -0.181080078125 -0.266880859375 -0.438410546875 -0.473009375 -0.738398828125 -0.591315625l-2.505921875 -0.9919109375c-0.19717109375 -0.07886484375 -0.35511640625 -0.2324796875 -0.43961445312499997 -0.42724296875 -0.084408203125 -0.19485312500000002 -0.088325390625 -0.41516796875000006 -0.01106875 -0.612958984375l2.14476796875 -5.33174140625c0.14556484375 -0.34994140625 0.21900312500000002 -0.725658984375 0.21588554687499997 -1.104655859375 -0.0030187499999999997 -0.378996875 -0.082593359375 -0.75348359375 -0.23379140625 -1.101008203125 -0.151198046875 -0.347542578125 -0.371009765625 -0.66098046875 -0.64624609375 -0.9215542968750001 -0.275236328125 -0.260573828125 -0.60017421875 -0.46292890624999994 -0.95548828125 -0.5949453124999999 -0.692021484375 -0.2535390625 -1.455567578125 -0.227241796875 -2.1284703124999997 0.07332148437500001 -0.67291171875 0.300572265625 -1.202064453125 0.8517007812499999 -1.4749828125000002 1.536265234375 -0.000404296875 0.00400703125 -0.000404296875 0.00805 0 0.012066015625l-2.1145894531250002 5.35387890625c-0.078676171875 0.19806953125 -0.232686328125 0.356868359375 -0.428258203125 0.441537109375 -0.19556289062499999 0.08468671875 -0.41667734375000004 0.088325390625 -0.614953515625 0.01015234375l-2.557231640625 -1.04119921875c-0.294840234375 -0.11947421875000001 -0.618619140625 -0.148251171875 -0.92991875 -0.08266523437500001 -0.311281640625 0.065594921875 -0.595924609375 0.22257890624999999 -0.8174882812500001 0.45085390625 -2.1186144531249997 2.17797421875 -3.1930109375 4.72313984375 -3.1930109375 7.565059375 -0.0055703125 2.908215234375 1.119138671875 5.7048625 3.13667890625 7.799434765625 0.07559453125 0.07897265625 0.166489453125 0.1418453125 0.267150390625 0.184503125 0.100669921875 0.04274765625 0.20897656250000002 0.064480859375 0.318334375 0.063977734375h17.202427734375c0.1818796875 -0.00019765625000000002 0.3583328125 -0.061965234375 0.50068125 -0.175348046875 0.142249609375 -0.113266015625 0.24194023437499998 -0.271516796875 0.282783203125 -0.44876953125 0.04084296875 -0.177252734375 0.020421484375 -0.36305859375000005 -0.057940234375 -0.5272390625000001 -0.07827187499999999 -0.16418046875 -0.209955859375 -0.29696953125000003 -0.37342656249999995 -0.376741796875ZM4.975546875 8.283728515625l2.556225390625 1.03616796875c0.29506484374999997 0.11804570312500001 0.6105332031249999 0.176659765625 0.9283285156250001 0.17253593750000001 0.317786328125 -0.00415078125 0.6315566406249999 -0.07099453125 0.923494921875 -0.19670390625 0.291839453125 -0.125709375 0.556016015625 -0.3078046875 0.777426953125 -0.53584609375 0.22132109375 -0.22804140624999997 0.39545625 -0.49753671875 0.51245078125 -0.793041796875l2.1125859375 -5.33174140625c0.257528125 -0.614666015625 0.9526671875 -0.9325511718749999 1.5522394531250001 -0.7041953125 0.15280625 0.056718359375 0.2926390625 0.14380390625 0.4109453125 0.256027734375 0.11830625 0.112205859375 0.2125703125 0.247223046875 0.277248828125 0.39687578125 0.0646875 0.14966171875 0.098387890625 0.31087734375 0.099088671875 0.473916796875 0.0006109374999999999 0.163039453125 -0.031687890625 0.32453359375 -0.0951625 0.47471640625L12.877601171875 8.86317578125c-0.235705078125 0.5946218750000001 -0.22584921874999997 1.258504296875 0.027465234375 1.84580390625 0.25330546875 0.587299609375 0.729342578125 1.050156640625 1.323578125 1.286858984375l2.502903125 0.9888921875v1.837942578125l-12.899810546875 -5.1597265625c0.342942578125 -0.49021445312499995 0.72550625 -0.95149921875 1.143809765625 -1.379218359375Zm4.828751171875 12.87667578125c-1.198228125 -1.149344140625 -2.04705390625 -2.6140578125 -2.448574609375 -4.22515390625 -0.055963671875 -0.203810546875 -0.189821875 -0.37734375000000003 -0.372671875 -0.483278515625 -0.18285 -0.10592578125 -0.4000203125 -0.135708984375 -0.6046214843750001 -0.08288984375 -0.20459218750000002 0.052908984374999996 -0.38020976562500003 0.18408984374999998 -0.488902734375 0.36526875 -0.1087109375 0.18117890625 -0.14179140625 0.39787304687499997 -0.09208085937499999 0.603291796875 0.35101953125 1.385956640625 0.9793328124999999 2.6864 1.846998828125 3.82276171875H4.70393125c-1.58726953125 -1.7684304687499999 -2.46317421875 -4.062078515625 -2.458637109375 -6.43832890625 -0.009846875 -1.2589984374999998 0.2555515625 -2.5050144531250003 0.7776335937500001 -3.6507378906250003l13.86253125 5.5450125c0.301803125 1.8107828125 1.06233046875 3.368053515625 2.202115234375 4.543048046875l-9.283276171875 0.00100625Z" stroke-width="1"></path></g></svg>
