<svg xmlns="http://www.w3.org/2000/svg" fill="none" viewBox="-0.5 -0.5 24 24" id="submit" height="24" width="24"><g><path fill="#c4c4c3" d="m20.0971484375 3.789609375 -5.230703125 17.25c-0.039890625 0.140515625 -0.12173828125 0.265578125 -0.23458203125000002 0.35847656250000004 -0.11275390625 0.0928984375 -0.25120312499999997 0.149140625 -0.39683984375 0.161359375 -0.14554687500000002 0.01221875 -0.29145312500000004 -0.0203046875 -0.4181328125 -0.093078125 -0.1266796875 -0.07277343750000001 -0.22811328125000002 -0.18247265625 -0.2909140625 -0.314453125L9.703125 13.296875l-7.854140625 -3.8228515625c-0.131953515625 -0.06280078124999999 -0.24164375 -0.16423437500000002 -0.314444140625 -0.2909140625 -0.072809375 -0.1266796875 -0.10527890625 -0.272558984375 -0.093087109375 -0.41816875 0.01220078125 -0.14560078125 0.06848789062499999 -0.28403203125 0.161359375 -0.396830859375 0.09288046875 -0.11280781250000001 0.217925 -0.194628515625 0.35847656250000004 -0.234555078125l17.25 -5.230703125c0.12290625000000001 -0.034437109375 0.25273046875 -0.0355421875 0.37617578125 -0.0031894531249999996 0.12344531250000002 0.032361718750000004 0.236109375 0.097004296875 0.3263125 0.18729726562500001 0.090203125 0.09029296875 0.1547109375 0.202975 0.18696484375 0.326465234375 0.0321640625 0.12349023437500001 0.03099609375 0.253332421875 -0.00359375 0.37618476562500003Z" stroke-width="1"></path><path fill="#000000" d="M20.42328125 2.57671875c-0.180765625 -0.180648828125 -0.40636328125 -0.309844140625 -0.6537031249999999 -0.37427109375 -0.24733984375 -0.0644359375 -0.50734765625 -0.061767578125 -0.75325 0.00770859375h-0.013476562499999999L1.75826015625 7.442656250000001c-0.279962109375 0.0806796875 -0.528793359375 0.24452773437499997 -0.713530078125 0.46982890625 -0.18472773437499998 0.22530117187499998 -0.29663890625 0.501408984375 -0.3208994140625 0.79175703125 -0.024259609374999998 0.290375 0.040276953125 0.58119921875 0.1850556640625 0.83401953125 0.14478320312499998 0.25282031250000003 0.36297773437499997 0.4556875 0.625662890625 0.5817382812499999L9.1640625 13.8359375l3.710546875 7.625039062500001c0.11544921875 0.24626171875 0.29891015625 0.4544296875 0.5288203125000001 0.59970703125 0.22991015625000003 0.14536718750000002 0.49656640625000004 0.2219140625 0.7685234375000001 0.22056640625 0.041328125 0 0.08265625 -0.001796875 0.123984375 -0.005390625 0.29010546875 -0.02344921875 0.56610546875 -0.135125 0.7908945312500001 -0.3200234375 0.22487890625 -0.18480859375 0.387765625 -0.43403515625000005 0.46691796875 -0.714078125l5.2289062500000005 -17.244609375 0 -0.013476562499999999c0.0704375 -0.245309375 0.07421093749999999 -0.504930859375 0.011050781249999999 -0.75218984375 -0.06316015625 -0.24726796875 -0.19100781249999998 -0.4732609375 -0.37042578125000003 -0.6547632812499999Zm-6.2432421875 18.2535546875 -0.0044921875000000005 0.012578125v-0.0062890625l-3.5991406250000004 -7.3941406249999995 4.3125 -4.3125c0.12910546875 -0.13593359375 0.1999921875 -0.316833984375 0.19765625 -0.50425703125 -0.00242578125 -0.187423046875 -0.077984375 -0.366490625 -0.21050390624999998 -0.499037109375 -0.13251953125000002 -0.1325375 -0.311578125 -0.208051171875 -0.4989921875 -0.21045 -0.18741406249999998 -0.0024078125000000002 -0.368359375 0.06850585937499999 -0.5042929687500001 0.197611328125l-4.3125 4.3125 -7.396817968750001 -3.5991406250000004h-0.0062890625L19.40625 3.59375l-5.2262109375 17.2365234375Z" stroke-width="1"></path></g></svg>
