<svg xmlns="http://www.w3.org/2000/svg" fill="none" viewBox="-0.5 -0.5 24 24" height="24" width="24"><g><path fill="#ffffff00" d="M20.125 11.5c0.0001796875 1.5146757812500002 -0.39854687499999997 3.0027578124999996 -1.1560195312500001 4.3144765624999994 -0.7575625 1.31162890625 -1.84709765625 2.40071484375 -3.1591757812499996 3.1576484375000002 -1.3119882812499999 0.7568437499999999 -2.80025 1.1548515625 -4.315015625 1.153953125 -1.5146757812500002 -0.0008984375 -3.002434375 -0.400703125 -4.313578125 -1.1591640625l-3.3592578125 1.1203515625c-0.12664375 0.042226562499999995 -0.26254140625 0.0483359375 -0.3924734375 0.017699218750000002 -0.129923046875 -0.030636718750000003 -0.24875039062499998 -0.09694140625 -0.343140234375 -0.19127734375 -0.094398828125 -0.09442578125 -0.160640625 -0.21319921875000003 -0.19130429687500003 -0.343203125 -0.030663671875 -0.12991406249999998 -0.024536328125 -0.2657578125 0.017699218750000002 -0.39243750000000005l1.1203515625 -3.3592578125c-0.662229296875 -1.1454179687500001 -1.05205234375 -2.4279375 -1.1393085937499998 -3.7481015625000005 -0.08725625 -1.32025390625 0.13039921875 -2.64284375 0.636120703125 -3.8655003906250003 0.505721484375 -1.222638671875 1.2859515625 -2.3125421875 2.28032421875 -3.18537421875 0.9943636718750001 -0.87283203125 2.17621328125 -1.505197265625 3.4541058593750003 -1.8481578124999998 1.27784765625 -0.342960546875 2.6175078125 -0.387325390625 3.91530078125 -0.1296625 1.29779296875 0.25766289062500003 2.518859375 0.81044453125 3.5687734375 1.6155703125 1.05000390625 0.8051257812499999 1.9006445312500002 1.8410242187499999 2.48615625 3.027527734375C19.8200703125 8.871585156250001 20.124730468750002 10.17687109375 20.125 11.5Z" stroke-width="1"></path>
<path fill="#ffffff" d="M16.321015625 9.553984375c0.06684375 0.06675390625 0.11985156250000001 0.14599609375 0.15596875 0.23332421875 0.03620703125 0.08723828125 0.0548046875 0.180765625 0.0548046875 0.27519140625 0 0.09442578125 -0.01859765625 0.187953125 -0.0548046875 0.27528125000000003 -0.0361171875 0.08723828125 -0.089125 0.16648046875 -0.15596875 0.233234375l-2.875 2.875c-0.06675390625 0.06684375 -0.14599609375 0.11985156250000001 -0.233234375 0.15605859375 -0.08732812499999999 0.0361171875 -0.18085546875 0.05471484375 -0.27528125000000003 0.05471484375 -0.09442578125 0 -0.187953125 -0.01859765625 -0.27528125000000003 -0.05471484375 -0.08723828125 -0.03620703125 -0.16648046875 -0.08921484375 -0.233234375 -0.15605859375L10.0625 11.0786328125l-2.366484375 2.3673828125000003c-0.134864453125 0.13485546874999998 -0.317786328125 0.21068359375 -0.508515625 0.21068359375s-0.373651171875 -0.075828125 -0.508515625 -0.21068359375c-0.134864453125 -0.13485546874999998 -0.21063867187500002 -0.31777734375 -0.21063867187500002 -0.508515625s0.07577421875 -0.37366015625 0.21063867187500002 -0.508515625l2.875 -2.875c0.06675390625 -0.06684375 0.14599609375 -0.11985156250000001 0.233234375 -0.15596875 0.08732812499999999 -0.03620703125 0.18085546875 -0.0548046875 0.27528125000000003 -0.0548046875 0.09442578125 0 0.187953125 0.01859765625 0.27528125000000003 0.0548046875 0.08723828125 0.0361171875 0.16648046875 0.089125 0.233234375 0.15596875L12.9375 11.9213671875l2.366484375 -2.3673828125000003c0.06675390625 -0.06684375 0.14599609375 -0.11985156250000001 0.233234375 -0.15596875 0.08732812499999999 -0.03620703125 0.18085546875 -0.0548046875 0.27528125000000003 -0.0548046875 0.09442578125 0 0.187953125 0.01859765625 0.27528125000000003 0.0548046875 0.08723828125 0.0361171875 0.16648046875 0.089125 0.233234375 0.15596875ZM20.84375 11.5c0.000359375 1.61314453125 -0.41696484375 3.1989765625 -1.2112734375 4.6030546875 -0.7943984375 1.40398828125 -1.93873828125 2.578515625 -3.32161328125 3.4090312500000004 -1.3828749999999999 0.83060546875 -2.957296875 1.28898828125 -4.5699921875 1.3305859375 -1.6126054687500002 0.041597656250000004 -3.2085359375 -0.33502734375 -4.63243359375 -1.09321875l-3.0591796875 1.0197265625c-0.25327851562500003 0.08445312499999999 -0.5250828125 0.09676171875 -0.7849378906250001 0.035398437500000005 -0.2598640625 -0.06127343750000001 -0.49750078124999997 -0.19379296875000002 -0.6862984375 -0.3825546875 -0.18879765625 -0.1888515625 -0.32128125 -0.42648828125 -0.382599609375 -0.68631640625 -0.06132734375 -0.25991796875 -0.04907265625 -0.5316953125 0.035398437500000005 -0.78496484375l1.0197265625 -3.0591796875c-0.666505859375 -1.2531406250000001 -1.0387734375 -2.6415859375 -1.088546875 -4.0600390625 -0.0497734375 -1.418453125 0.22425898437500003 -2.82962890625 0.801289453125 -4.12639765625C3.5403199218749997 6.408375 4.405191796875 5.260126953125 5.49225625 4.3475390625c1.08705546875 -0.9125968750000001 2.367733203125 -1.5655453125 3.74484921875 -1.9092875 1.37703515625 -0.3437421875 2.81435546875 -0.369248828125 4.202800781250001 -0.0745703125 1.38835546875 0.29466953125 2.69144921875 0.9017707031250001 3.8101835937499997 1.77522265625 1.118734375 0.873451953125 2.0238203125 1.9902906249999999 2.6464374999999998 3.2657484375C20.519234375 8.68011015625 20.8432109375 10.080648437499999 20.84375 11.5Zm-1.4375 0c-0.000359375 -1.2128007812500001 -0.27968359375 -2.40925 -0.81641015625 -3.4967636718749997 -0.5367265625000001 -1.087540625 -1.31648046875 -2.037036328125 -2.27888671875 -2.7750128906250002 -0.96240625 -0.7379765625 -2.0816796875000003 -1.244659375 -3.2712109375 -1.480849609375 -1.18962109375 -0.23618125 -2.417515625 -0.1955359375 -3.5888984374999997 0.118782421875 -1.1713109375 0.31432734375 -2.2546378906249998 0.893909375 -3.1661386718749998 1.6939140625 -0.91150078125 0.7999957031249999 -1.626737890625 1.7989683593749999 -2.090385546875 2.919625390625 -0.46364765625 1.120648046875 -0.6632625 2.332909765625 -0.583418359375 3.5431050781250004 0.079853125 1.21010546875 0.437026953125 2.3857109375 1.043903515625 3.43571484375 0.050932421874999995 0.08813671875 0.08255742187500001 0.18615625 0.092781640625 0.28741015625 0.01022421875 0.10134375 -0.0011859375 0.2035859375 -0.033484765624999996 0.30016796875L3.59375 19.40625l3.3601562499999997 -1.12125c0.09661796874999999 -0.0321640625 0.198958984375 -0.04339453125 0.3002578125 -0.0330625 0.10129882812499999 0.010421875 0.1992375 0.042136718749999996 0.2873203125 0.09325781250000001 1.2019027343750002 0.6952109375000001 2.5656679687499997 1.0615937500000001 3.9542031250000003 1.0623125 1.3884453125 0.00080859375 2.7526328125000004 -0.36413671875 3.95528125 -1.058s2.20144140625 -1.6922070312500002 2.89575390625 -2.8945859375000005c0.6943125 -1.2023789062499999 1.059796875 -2.5664765625 1.05952734375 -3.954921875Z" stroke-width="1"></path></g></svg>
